#!OML:ASF H:\Terrain\Patient Classification 1\Terrain2\Thursday\justin.ASF
:FULLY-SPECIFIED
:DEGREES
3846
root -1.66829 20.2712 -8.2639 2516.07 177.931 2.53215
lowerback 7.25219 0.048302 -0.312875
upperback 1.88769 0.239592 1.97888
thorax -2.12628 0.184729 2.19251
lowerneck -13.2573 -5.53641 -9.90052
upperneck 36.2529 -3.65434 4.95236
head 15.2613 -1.03857 3.55572
rclavicle 4.64659e-015 -9.93923e-015
rhumerus -37.7547 -9.11184 -78.6529
rradius 30.5247
rwrist -11.015
rhand -21.3497 11.6731
rfingers 7.12502
rthumb 5.03671 -18.247
lclavicle 4.64659e-015 -9.93923e-015
lhumerus -39.169 6.11704 81.4088
lradius 32.9158
lwrist 6.3014
lhand -19.8805 20.1819
lfingers 7.12502
lthumb 6.45517 50.0635
rfemur -18.8493 -12.4372 16.4649
rtibia 104.429
rfoot -10.3288 -4.2641
rtoes 15.7462
lfemur -7.43381 6.03222 -21.1284
ltibia 31.824
lfoot -12.5492 -18.1391
ltoes 22.41
3847
root -1.67427 20.303 -8.35401 2515.97 178.106 2.17711
lowerback 7.26149 -0.0755496 -0.651104
upperback 1.94418 0.0491846 1.95185
thorax -2.06512 0.0903431 2.37224
lowerneck -13.4995 -5.56251 -10.1618
upperneck 36.4205 -3.70689 5.28251
head 15.4243 -1.05235 3.74454
rclavicle 2.82026e-015 -5.96354e-015
rhumerus -37.5238 -8.75732 -78.7695
rradius 31.0311
rwrist -11.4252
rhand -21.5251 11.9271
rfingers 7.12502
rthumb 4.86729 -17.997
lclavicle 2.82026e-015 -5.96354e-015
lhumerus -38.8861 6.32283 81.3532
lradius 32.7224
lwrist 5.36465
lhand -18.9176 20.2196
lfingers 7.12502
lthumb 7.38464 50.0708
rfemur -20.2182 -12.8708 16.1921
rtibia 104.469
rfoot -11.2365 -4.158
rtoes 13.6533
lfemur -6.25394 5.83637 -21.5248
ltibia 30.3842
lfoot -12.2892 -18.0636
ltoes 21.9225
3848
root -1.67613 20.3359 -8.4438 2515.96 178.295 1.64996
lowerback 7.24449 -0.177449 -1.23333
upperback 1.98344 -0.134749 1.88273
thorax -2.00446 -0.00228664 2.6454
lowerneck -13.7718 -5.49721 -10.0357
upperneck 36.353 -3.62101 5.1409
head 15.4368 -1.03335 3.66746
rclavicle -1.46604e-015 1.39149e-014
rhumerus -37.2301 -8.44168 -78.9231
rradius 31.5338
rwrist -11.9154
rhand -21.3835 11.2218
rfingers 7.12502
rthumb 5.00405 -18.6991
lclavicle -1.46604e-015 1.39149e-014
lhumerus -38.7581 5.99612 81.728
lradius 33.3478
lwrist 5.45527
lhand -18.5273 22.7938
lfingers 7.12502
lthumb 7.76137 52.6313
rfemur -21.7144 -13.2668 15.7294
rtibia 104.429
rfoot -11.8586 -3.77389
rtoes 13.7259
lfemur -5.14083 5.58108 -22.1007
ltibia 28.9067
lfoot -12.2492 -17.9043
ltoes 20.8974
3849
root -1.67522 20.3698 -8.54077 2516.07 178.388 1.36851
lowerback 7.11114 -0.248741 -1.61657
upperback 1.86687 -0.265121 1.92995
thorax -2.04073 -0.0692246 2.92187
lowerneck -13.5462 -5.33421 -9.85758
upperneck 36.0656 -3.35407 4.76609
head 15.2 -0.95606 3.50256
rclavicle 3.52843e-015 -7.95139e-016
rhumerus -37.2428 -8.03112 -78.9554
rradius 32.0029
rwrist -12.4534
rhand -21.2718 10.8372
rfingers 7.12502
rthumb 5.11196 -19.0811
lclavicle 3.52843e-015 -7.95139e-016
lhumerus -39.0286 5.49086 82.3156
lradius 33.6982
lwrist 6.70069
lhand -20.1203 23.818
lfingers 7.12502
lthumb 6.22365 53.7066
rfemur -23.3452 -13.3916 15.6945
rtibia 104.231
rfoot -12.2864 -3.30105
rtoes 14.7276
lfemur -4.12941 5.38748 -22.4148
ltibia 27.411
lfoot -12.0055 -17.7158
ltoes 20.6457
3850
root -1.6731 20.3981 -8.63834 2516.07 178.512 0.827876
lowerback 7.0081 -0.315118 -2.19582
upperback 1.80212 -0.40669 1.84773
thorax -2.03694 -0.142172 3.17578
lowerneck -13.4239 -5.23184 -9.73853
upperneck 35.9958 -3.16985 4.55076
head 15.1108 -0.889938 3.41704
rclavicle -9.38015e-015 1.23246e-014
rhumerus -37.242 -7.80557 -78.978
rradius 32.4379
rwrist -12.7521
rhand -21.335 10.9237
rfingers 7.12502
rthumb 5.0509 -18.9961
lclavicle -9.38015e-015 1.23246e-014
lhumerus -39.1758 5.18409 82.5573
lradius 33.6189
lwrist 7.0866
lhand -20.4055 26.3058
lfingers 7.12502
lthumb 5.94837 56.2023
rfemur -24.7921 -13.5436 15.3096
rtibia 103.854
rfoot -12.7866 -2.6694
rtoes 15.0602
lfemur -3.07403 5.25107 -23.01
ltibia 26.031
lfoot -11.1625 -17.6312
ltoes 22.3209
3851
root -1.67458 20.4206 -8.73186 2516 178.619 0.241732
lowerback 7.04529 -0.415632 -2.75536
upperback 1.75757 -0.593592 1.69267
thorax -2.08533 -0.235829 3.34811
lowerneck -13.7342 -5.18455 -9.5103
upperneck 36.2967 -3.05346 4.4118
head 15.3082 -0.820801 3.35273
rclavicle 1.61513e-016 -6.36111e-015
rhumerus -37.1607 -7.7331 -79.0675
rradius 32.8448
rwrist -12.756
rhand -21.2306 11.1164
rfingers 7.12502
rthumb 5.15169 -18.801
lclavicle 1.61513e-016 -6.36111e-015
lhumerus -39.2767 5.06181 82.4622
lradius 33.461
lwrist 6.6089
lhand -19.0071 29.4471
lfingers 7.12502
lthumb 7.29826 59.3012
rfemur -26.0733 -13.7447 14.7885
rtibia 103.248
rfoot -13.159 -1.85854
rtoes 14.4683
lfemur -2.00375 5.09237 -23.6725
ltibia 24.7419
lfoot -10.4748 -17.4214
ltoes 23.3069
3852
root -1.67883 20.4382 -8.81957 2516.08 178.649 0.236975
lowerback 7.07608 -0.506365 -2.69066
upperback 1.5857 -0.719374 1.71114
thorax -2.27104 -0.296995 3.34366
lowerneck -13.8249 -5.16305 -9.433
upperneck 36.5307 -3.00492 4.44601
head 15.438 -0.77285 3.37656
rclavicle 3.93842e-015 1.55052e-014
rhumerus -37.2734 -7.75034 -79.081
rradius 33.3384
rwrist -12.8829
rhand -21.2123 11.5374
rfingers 7.12502
rthumb 5.16934 -18.3795
lclavicle 3.93842e-015 1.55052e-014
lhumerus -39.608 4.75715 82.5321
lradius 33.5455
lwrist 6.27808
lhand -18.4247 30.3078
lfingers 7.12502
lthumb 7.86046 60.1417
rfemur -27.5239 -13.8201 15.0469
rtibia 102.436
rfoot -13.3484 -1.20156
rtoes 13.0439
lfemur -1.06936 4.86814 -23.7336
ltibia 23.3407
lfoot -10.2453 -17.0351
ltoes 22.5481
